<svg xmlns="http://www.w3.org/2000/svg" viewBox="0 0 800 600" width="800" height="600" role="img" aria-label="СПецЭФФЕКТЫ">
  <defs>
    <linearGradient id="g12" x1="0" y1="0" x2="1" y2="1">
      <stop offset="0" stop-color="#1E1E23"/>
      <stop offset="0.55" stop-color="#16161A"/>
      <stop offset="1" stop-color="#C4633F" stop-opacity="0.55"/>
    </linearGradient>
    <radialGradient id="r12" cx="0.7" cy="0.15" r="0.9">
      <stop offset="0" stop-color="#E8A33D" stop-opacity="0.35"/>
      <stop offset="1" stop-color="#E8A33D" stop-opacity="0"/>
    </radialGradient>
    <filter id="n12">
      <feTurbulence type="fractalNoise" baseFrequency="0.85" numOctaves="2" seed="12" result="noise"/>
      <feColorMatrix in="noise" type="matrix" values="0 0 0 0 0  0 0 0 0 0  0 0 0 0 0  0 0 0 0.035 0"/>
    </filter>
  </defs>
  <rect width="800" height="600" fill="url(#g12)"/>
  <rect width="800" height="600" fill="url(#r12)"/>
  <rect width="800" height="600" filter="url(#n12)"/>
  <g transform="translate(300.0,186.0)"><g fill="none" stroke="#FBF7F2" stroke-width="4" stroke-linecap="round" stroke-linejoin="round" opacity="0.85"><path d="M100 30 C70 70 60 90 70 115 C77 133 95 140 100 140 C105 140 123 133 130 115 C140 90 130 70 100 30 Z"/><path d="M100 90 c-10 15 -8 28 0 34 c8 -6 10 -19 0 -34 Z" fill="#FBF7F2" stroke="none"/></g></g>
  <text x="50%" y="408.0" text-anchor="middle" fill="#FBF7F2" font-family="Arial, Helvetica, sans-serif" font-weight="700" font-size="19" letter-spacing="0.5">СПецЭФФЕКТЫ</text>
  <text x="50%" y="430.0" text-anchor="middle" fill="#E8A33D" font-family="Arial, Helvetica, sans-serif" font-weight="600" font-size="11" letter-spacing="2">ДЫМ · ХОЛОДНЫЙ ОГОНЬ · ЛАЗЕРЫ</text>
  <rect x="1" y="1" width="798" height="598" fill="none" stroke="#2A2A31" stroke-width="1"/>
</svg>