<svg xmlns="http://www.w3.org/2000/svg" viewBox="0 0 800 600" width="800" height="600" role="img" aria-label="СОПРОВОЖДЕНИЕ">
  <defs>
    <linearGradient id="g18" x1="0" y1="0" x2="1" y2="1">
      <stop offset="0" stop-color="#1E1E23"/>
      <stop offset="0.55" stop-color="#16161A"/>
      <stop offset="1" stop-color="#C4633F" stop-opacity="0.55"/>
    </linearGradient>
    <radialGradient id="r18" cx="0.7" cy="0.15" r="0.9">
      <stop offset="0" stop-color="#E8A33D" stop-opacity="0.35"/>
      <stop offset="1" stop-color="#E8A33D" stop-opacity="0"/>
    </radialGradient>
    <filter id="n18">
      <feTurbulence type="fractalNoise" baseFrequency="0.85" numOctaves="2" seed="18" result="noise"/>
      <feColorMatrix in="noise" type="matrix" values="0 0 0 0 0  0 0 0 0 0  0 0 0 0 0  0 0 0 0.035 0"/>
    </filter>
  </defs>
  <rect width="800" height="600" fill="url(#g18)"/>
  <rect width="800" height="600" fill="url(#r18)"/>
  <rect width="800" height="600" filter="url(#n18)"/>
  <g transform="translate(300.0,186.0)"><g fill="none" stroke="#FBF7F2" stroke-width="4" stroke-linecap="round" stroke-linejoin="round" opacity="0.85"><path d="M120 45 a22 22 0 1 0 22 22 l-14-14 6-6 14 14 a22 22 0 0 0-28-16 Z"/><path d="M96 92 L50 138 a10 10 0 0 0 14 14 L110 106"/></g></g>
  <text x="50%" y="408.0" text-anchor="middle" fill="#FBF7F2" font-family="Arial, Helvetica, sans-serif" font-weight="700" font-size="19" letter-spacing="0.5">СОПРОВОЖДЕНИЕ</text>
  <text x="50%" y="430.0" text-anchor="middle" fill="#E8A33D" font-family="Arial, Helvetica, sans-serif" font-weight="600" font-size="11" letter-spacing="2">МОНТАЖ · ДЕМОНТАЖ · ИНЖЕНЕР</text>
  <rect x="1" y="1" width="798" height="598" fill="none" stroke="#2A2A31" stroke-width="1"/>
</svg>